<svg width="46" height="46" viewBox="0 0 46 46" fill="none" xmlns="http://www.w3.org/2000/svg">
<path d="M38.334 12.4584H7.66726C7.41312 12.4584 7.16939 12.5594 6.98968 12.7391C6.80998 12.9188 6.70901 13.1625 6.70898 13.4166V37.375C6.71043 38.6454 7.21573 39.8633 8.11402 40.7616C9.01232 41.6599 10.2302 42.1652 11.5006 42.1666H34.5006C35.771 42.1652 36.9889 41.6599 37.8872 40.7616C38.7855 39.8633 39.2908 38.6454 39.2923 37.375V13.4166C39.2922 13.1625 39.1913 12.9188 39.0116 12.7391C38.8319 12.5594 38.5881 12.4584 38.334 12.4584Z" fill="#F1E3BA"/>
<g clip-path="url(#clip0_5737_10005)">
<path fill-rule="evenodd" clip-rule="evenodd" d="M22.3791 24.3955C22.3341 24.3914 22.2887 24.3961 22.2456 24.4096C22.2024 24.423 22.1623 24.4448 22.1276 24.4737L17.6763 28.1839C17.6221 28.2291 17.5831 28.29 17.5647 28.3582C17.5462 28.4264 17.5492 28.4986 17.5733 28.565C17.5973 28.6314 17.6412 28.6888 17.6991 28.7293C17.7569 28.7699 17.8258 28.7917 17.8964 28.7917H28.1049C28.1755 28.7917 28.2444 28.7699 28.3022 28.7293C28.36 28.6888 28.404 28.6314 28.428 28.565C28.4521 28.4986 28.4551 28.4264 28.4366 28.3582C28.4182 28.29 28.3792 28.2291 28.325 28.1839L23.8737 24.4737C23.839 24.4448 23.7989 24.423 23.7557 24.4096C23.7126 24.3962 23.6672 24.3914 23.6222 24.3955C23.5772 24.3996 23.5334 24.4126 23.4934 24.4337C23.4535 24.4547 23.418 24.4835 23.3891 24.5182C23.293 24.634 23.1511 24.7008 23.0006 24.7013C22.8502 24.7008 22.7082 24.634 22.6121 24.5182C22.5833 24.4835 22.5478 24.4547 22.5079 24.4337C22.4679 24.4126 22.4241 24.3996 22.3791 24.3955ZM22.3473 25.1857C22.5399 25.3128 22.7643 25.3885 23 25.3889C23.0004 25.3889 23.0009 25.3889 23.0013 25.3889C23.237 25.3885 23.4614 25.3128 23.654 25.1857L27.1556 28.1042H18.8457L22.3473 25.1857Z" fill="#CE9800"/>
<path fill-rule="evenodd" clip-rule="evenodd" d="M17.0452 28.1042C15.9181 28.1042 15 29.0224 15 30.1494V36.955C15 38.082 15.9181 39.0001 17.0452 39.0001H28.9548C30.0819 39.0001 31 38.082 31 36.955V30.1494C31 29.0224 30.0819 28.1042 28.9548 28.1042H17.0452Z" fill="#CE9800"/>
<path fill-rule="evenodd" clip-rule="evenodd" d="M28.2676 28.1042C29.3946 28.1042 30.3127 29.0224 30.3127 30.1494V36.955C30.3127 38.082 29.3946 39.0001 28.2676 39.0001H28.9551C30.0821 39.0001 31.0002 38.082 31.0002 36.955V30.1494C31.0002 29.0224 30.0821 28.1042 28.9551 28.1042H28.2676Z" fill="#CE9800"/>
<path fill-rule="evenodd" clip-rule="evenodd" d="M22.9991 23C22.3435 23 21.8047 23.5389 21.8047 24.1944C21.8047 24.85 22.3435 25.3889 22.9991 25.3889C23.6547 25.3889 24.1936 24.85 24.1936 24.1944C24.1936 23.5389 23.6547 23 22.9991 23ZM22.9991 23.6875C23.2832 23.6875 23.5061 23.9104 23.5061 24.1944C23.5061 24.4785 23.2832 24.7014 22.9991 24.7014C22.7151 24.7014 22.4922 24.4785 22.4922 24.1944C22.4922 23.9104 22.7151 23.6875 22.9991 23.6875Z" fill="#CE9800"/>
</g>
<path d="M42.7324 13.8665L39.6957 5.70566C39.4896 5.15705 39.1215 4.68413 38.6403 4.34973C38.159 4.01533 37.5874 3.83528 37.0014 3.8335H8.99797C8.41193 3.83526 7.8403 4.01531 7.35904 4.34974C6.87778 4.68416 6.50968 5.15711 6.30365 5.70575L3.26693 13.8665C2.88959 14.8829 2.8532 15.9617 3.16586 16.9041C3.50536 17.9278 4.12596 18.8354 4.95675 19.5231C5.78754 20.2109 6.79502 20.6511 7.8641 20.7934C8.93318 20.9358 10.0208 20.7746 11.0026 20.3282C11.9844 19.8818 12.8208 19.1683 13.4164 18.2691C13.9403 19.0607 14.6522 19.7101 15.4883 20.1593C16.3245 20.6086 17.2589 20.8437 18.2081 20.8437C19.1573 20.8437 20.0917 20.6086 20.9279 20.1593C21.764 19.7101 22.4758 19.0607 22.9998 18.2691C23.5237 19.0607 24.2355 19.7101 25.0717 20.1593C25.9078 20.6086 26.8422 20.8437 27.7914 20.8437C28.7406 20.8437 29.6751 20.6086 30.5112 20.1593C31.3474 19.7101 32.0592 19.0607 32.5831 18.2691C33.1787 19.1683 34.0152 19.8817 34.9969 20.3281C35.9787 20.7744 37.0663 20.9356 38.1353 20.7932C39.2044 20.6509 40.2118 20.2107 41.0426 19.523C41.8734 18.8353 42.494 17.9278 42.8335 16.9041C43.1461 15.9617 43.1101 14.8829 42.7324 13.8665Z" fill="#E9C150"/>
<path d="M3.26693 13.8666C2.88959 14.883 2.8532 15.9618 3.16586 16.9042C3.50536 17.9279 4.12596 18.8355 4.95675 19.5232C5.78754 20.211 6.79502 20.6512 7.8641 20.7935C8.93318 20.9359 10.0208 20.7747 11.0026 20.3283C11.9844 19.8819 12.8208 19.1684 13.4164 18.2692C13.9403 19.0608 14.6522 19.7102 15.4883 20.1594C16.3245 20.6087 17.2589 20.8438 18.2081 20.8438C19.1573 20.8438 20.0917 20.6087 20.9279 20.1594C21.764 19.7102 22.4758 19.0608 22.9998 18.2692C23.5237 19.0608 24.2355 19.7102 25.0717 20.1594C25.9078 20.6087 26.8422 20.8438 27.7914 20.8438C28.7406 20.8438 29.6751 20.6087 30.5112 20.1594C31.3474 19.7102 32.0592 19.0608 32.5831 18.2692C33.1787 19.1684 34.0152 19.8819 34.997 20.3283C35.9788 20.7747 37.0663 20.9359 38.1354 20.7935C39.2045 20.6512 40.212 20.211 41.0428 19.5232C41.8736 18.8355 42.4942 17.9279 42.8337 16.9042C43.1463 15.9618 43.1103 14.8828 42.7326 13.8666L42.5653 13.4169H3.43431L3.26693 13.8666Z" fill="#CE9800"/>
<path d="M42.733 13.8664L39.6963 5.70554C39.4902 5.15693 39.1221 4.68401 38.6408 4.34961C38.1596 4.01521 37.588 3.83515 37.002 3.83337H30.8926L32.467 12.7556C32.5447 13.1955 32.5838 13.6413 32.5838 14.088V18.2692C33.1793 19.1684 34.0158 19.882 34.9976 20.3284C35.9795 20.7748 37.0671 20.936 38.1362 20.7937C39.2053 20.6513 40.2128 20.2111 41.0436 19.5233C41.8744 18.8355 42.495 17.9279 42.8345 16.9042C43.1472 15.9617 43.1112 14.8827 42.7334 13.8666L42.733 13.8664Z" fill="#F0DEA9"/>
<path d="M32.5842 14.088V18.2692C33.1797 19.1684 34.0162 19.8819 34.998 20.3283C35.9798 20.7747 37.0674 20.9359 38.1365 20.7935C39.2055 20.6512 40.213 20.211 41.0438 19.5232C41.8746 18.8355 42.4952 17.9279 42.8347 16.9042C43.1474 15.9618 43.1113 14.8828 42.7336 13.8666L42.5663 13.4169H32.5547C32.5742 13.6399 32.584 13.8636 32.5842 14.088Z" fill="#DFBF64"/>
<path d="M15.1072 3.83337L13.5328 12.7556C13.4551 13.1955 13.4161 13.6413 13.416 14.088V18.2692C13.9399 19.0607 14.6518 19.7101 15.4879 20.1594C16.3241 20.6086 17.2585 20.8438 18.2077 20.8438C19.1569 20.8438 20.0913 20.6086 20.9275 20.1594C21.7636 19.7101 22.4755 19.0607 22.9994 18.2692V3.83337H15.1072Z" fill="#F0DEA9"/>
<path d="M13.4457 13.4166C13.426 13.6398 13.4161 13.8636 13.416 14.0879V18.2692C13.9399 19.0607 14.6518 19.7101 15.4879 20.1594C16.3241 20.6086 17.2585 20.8438 18.2077 20.8438C19.1569 20.8438 20.0913 20.6086 20.9275 20.1594C21.7636 19.7101 22.4755 19.0607 22.9994 18.2692V13.4166H13.4457Z" fill="#DFBF64"/>
<defs>
<clipPath id="clip0_5737_10005">
<rect width="16" height="16" fill="white" transform="translate(15 23)"/>
</clipPath>
</defs>
</svg>
