<svg width="46" height="46" viewBox="0 0 46 46" fill="none" xmlns="http://www.w3.org/2000/svg">
<path d="M38.334 12.4583H7.66726C7.41312 12.4583 7.16939 12.5592 6.98968 12.7389C6.80998 12.9187 6.70901 13.1624 6.70898 13.4165V37.3749C6.71043 38.6453 7.21573 39.8632 8.11402 40.7615C9.01232 41.6598 10.2302 42.1651 11.5006 42.1665H34.5006C35.771 42.1651 36.9889 41.6598 37.8872 40.7615C38.7855 39.8632 39.2908 38.6453 39.2923 37.3749V13.4165C39.2922 13.1624 39.1913 12.9187 39.0116 12.7389C38.8319 12.5592 38.5881 12.4583 38.334 12.4583Z" fill="#D4DEE6"/>
<path d="M23 36C26.3137 36 29 33.3137 29 30C29 26.6863 26.3137 24 23 24C19.6863 24 17 26.6863 17 30C17 33.3137 19.6863 36 23 36Z" fill="#637381"/>
<rect x="24.873" y="27.002" width="1.61775" height="6.68481" rx="0.808874" transform="rotate(45 24.873 27.002)" fill="white"/>
<rect width="1.61775" height="6.68481" rx="0.808874" transform="matrix(-0.707107 0.707107 0.707107 0.707107 21.291 27.002)" fill="white"/>
<path d="M42.7324 13.8665L39.6957 5.70566C39.4896 5.15705 39.1215 4.68413 38.6403 4.34973C38.159 4.01533 37.5874 3.83528 37.0014 3.8335H8.99797C8.41193 3.83526 7.8403 4.01531 7.35904 4.34974C6.87778 4.68416 6.50968 5.15711 6.30365 5.70575L3.26693 13.8665C2.88959 14.8829 2.8532 15.9617 3.16586 16.9041C3.50536 17.9278 4.12596 18.8354 4.95675 19.5231C5.78754 20.2109 6.79502 20.6511 7.8641 20.7934C8.93318 20.9358 10.0208 20.7746 11.0026 20.3282C11.9844 19.8818 12.8208 19.1683 13.4164 18.2691C13.9403 19.0607 14.6522 19.7101 15.4883 20.1593C16.3245 20.6086 17.2589 20.8437 18.2081 20.8437C19.1573 20.8437 20.0917 20.6086 20.9279 20.1593C21.764 19.7101 22.4758 19.0607 22.9998 18.2691C23.5237 19.0607 24.2355 19.7101 25.0717 20.1593C25.9078 20.6086 26.8422 20.8437 27.7914 20.8437C28.7406 20.8437 29.6751 20.6086 30.5112 20.1593C31.3474 19.7101 32.0592 19.0607 32.5831 18.2691C33.1787 19.1683 34.0152 19.8817 34.9969 20.3281C35.9787 20.7744 37.0663 20.9356 38.1353 20.7932C39.2044 20.6509 40.2118 20.2107 41.0426 19.523C41.8734 18.8353 42.494 17.9278 42.8335 16.9041C43.1461 15.9617 43.1101 14.8829 42.7324 13.8665Z" fill="#919EAB"/>
<path d="M3.26693 13.8665C2.88959 14.8829 2.8532 15.9617 3.16586 16.9041C3.50536 17.9278 4.12596 18.8354 4.95675 19.5231C5.78754 20.2108 6.79502 20.651 7.8641 20.7934C8.93318 20.9358 10.0208 20.7745 11.0026 20.3282C11.9844 19.8818 12.8208 19.1683 13.4164 18.2691C13.9403 19.0606 14.6522 19.71 15.4883 20.1593C16.3245 20.6086 17.2589 20.8437 18.2081 20.8437C19.1573 20.8437 20.0917 20.6086 20.9279 20.1593C21.764 19.71 22.4758 19.0606 22.9998 18.2691C23.5237 19.0606 24.2355 19.71 25.0717 20.1593C25.9078 20.6086 26.8422 20.8437 27.7914 20.8437C28.7406 20.8437 29.6751 20.6086 30.5112 20.1593C31.3474 19.71 32.0592 19.0606 32.5831 18.2691C33.1787 19.1683 34.0152 19.8818 34.997 20.3282C35.9788 20.7745 37.0663 20.9358 38.1354 20.7934C39.2045 20.651 40.212 20.2108 41.0428 19.5231C41.8736 18.8354 42.4942 17.9278 42.8337 16.9041C43.1463 15.9617 43.1103 14.8826 42.7326 13.8665L42.5653 13.4167H3.43431L3.26693 13.8665Z" fill="#637381"/>
<path d="M42.733 13.8663L39.6963 5.70542C39.4902 5.15681 39.1221 4.68389 38.6408 4.34949C38.1596 4.01508 37.588 3.83503 37.002 3.83325H30.8926L32.467 12.7555C32.5447 13.1953 32.5838 13.6412 32.5838 14.0878V18.2691C33.1793 19.1683 34.0158 19.8819 34.9976 20.3283C35.9795 20.7747 37.0671 20.9359 38.1362 20.7935C39.2053 20.6512 40.2128 20.211 41.0436 19.5232C41.8744 18.8354 42.495 17.9278 42.8345 16.9041C43.1472 15.9616 43.1112 14.8826 42.7334 13.8665L42.733 13.8663Z" fill="#BCC8D1"/>
<path d="M32.5842 14.0879V18.2691C33.1797 19.1683 34.0162 19.8818 34.998 20.3282C35.9798 20.7745 37.0674 20.9358 38.1365 20.7934C39.2055 20.651 40.213 20.2108 41.0438 19.5231C41.8746 18.8354 42.4952 17.9278 42.8347 16.9041C43.1474 15.9617 43.1113 14.8826 42.7336 13.8665L42.5663 13.4167H32.5547C32.5742 13.6398 32.584 13.8635 32.5842 14.0879Z" fill="#A8B5C1"/>
<path d="M15.1072 3.83325L13.5328 12.7555C13.4551 13.1953 13.4161 13.6412 13.416 14.0878V18.2691C13.9399 19.0606 14.6518 19.71 15.4879 20.1593C16.3241 20.6085 17.2585 20.8437 18.2077 20.8437C19.1569 20.8437 20.0913 20.6085 20.9275 20.1593C21.7636 19.71 22.4755 19.0606 22.9994 18.2691V3.83325H15.1072Z" fill="#BCC8D1"/>
<path d="M13.4457 13.4167C13.426 13.6399 13.4161 13.8637 13.416 14.0881V18.2693C13.9399 19.0608 14.6518 19.7102 15.4879 20.1595C16.3241 20.6087 17.2585 20.8439 18.2077 20.8439C19.1569 20.8439 20.0913 20.6087 20.9275 20.1595C21.7636 19.7102 22.4755 19.0608 22.9994 18.2693V13.4167H13.4457Z" fill="#A8B5C1"/>
</svg>
