<svg width="46" height="46" viewBox="0 0 46 46" fill="none" xmlns="http://www.w3.org/2000/svg">
<path d="M38.334 12.4584H7.66726C7.41312 12.4584 7.16939 12.5594 6.98968 12.7391C6.80998 12.9188 6.70901 13.1625 6.70898 13.4166V37.375C6.71043 38.6454 7.21573 39.8633 8.11402 40.7616C9.01232 41.6599 10.2302 42.1652 11.5006 42.1666H34.5006C35.771 42.1652 36.9889 41.6599 37.8872 40.7616C38.7855 39.8633 39.2908 38.6454 39.2923 37.375V13.4166C39.2922 13.1625 39.1913 12.9188 39.0116 12.7391C38.8319 12.5594 38.5881 12.4584 38.334 12.4584Z" fill="#B7D1DF"/>
<path d="M22.041 42.1666V26.8334C22.041 26.7075 22.0163 26.5829 21.9681 26.4666C21.9199 26.3503 21.8494 26.2447 21.7604 26.1557C21.6714 26.0667 21.5657 25.9961 21.4495 25.948C21.3332 25.8998 21.2086 25.875 21.0827 25.875H14.3744C14.1202 25.875 13.8764 25.976 13.6967 26.1557C13.517 26.3354 13.416 26.5792 13.416 26.8334V42.1666H22.041Z" fill="#3580AA"/>
<path d="M31.7614 26.2856H29.0232C27.511 26.2856 26.2852 27.5115 26.2852 29.0237V31.7619C26.2852 33.2741 27.511 34.4999 29.0232 34.4999H31.7614C33.2736 34.4999 34.4994 33.2741 34.4994 31.7619V29.0237C34.4994 27.5115 33.2736 26.2856 31.7614 26.2856Z" fill="#85B7D2"/>
<path d="M42.7324 13.8665L39.6957 5.70566C39.4896 5.15705 39.1215 4.68413 38.6403 4.34973C38.159 4.01533 37.5874 3.83528 37.0014 3.8335H8.99797C8.41193 3.83526 7.8403 4.01531 7.35904 4.34974C6.87778 4.68416 6.50968 5.15711 6.30365 5.70575L3.26693 13.8665C2.88959 14.8829 2.8532 15.9617 3.16586 16.9041C3.50536 17.9278 4.12596 18.8354 4.95675 19.5231C5.78754 20.2109 6.79502 20.6511 7.8641 20.7934C8.93318 20.9358 10.0208 20.7746 11.0026 20.3282C11.9844 19.8818 12.8208 19.1683 13.4164 18.2691C13.9403 19.0607 14.6522 19.7101 15.4883 20.1593C16.3245 20.6086 17.2589 20.8437 18.2081 20.8437C19.1573 20.8437 20.0917 20.6086 20.9279 20.1593C21.764 19.7101 22.4758 19.0607 22.9998 18.2691C23.5237 19.0607 24.2355 19.7101 25.0717 20.1593C25.9078 20.6086 26.8422 20.8437 27.7914 20.8437C28.7406 20.8437 29.6751 20.6086 30.5112 20.1593C31.3474 19.7101 32.0592 19.0607 32.5831 18.2691C33.1787 19.1683 34.0152 19.8817 34.9969 20.3281C35.9787 20.7744 37.0663 20.9356 38.1353 20.7932C39.2044 20.6509 40.2118 20.2107 41.0426 19.523C41.8734 18.8353 42.494 17.9278 42.8335 16.9041C43.1461 15.9617 43.1101 14.8829 42.7324 13.8665Z" fill="#077EC0"/>
<path d="M3.26693 13.8666C2.88959 14.883 2.8532 15.9618 3.16586 16.9042C3.50536 17.9279 4.12596 18.8355 4.95675 19.5232C5.78754 20.211 6.79502 20.6512 7.8641 20.7935C8.93318 20.9359 10.0208 20.7747 11.0026 20.3283C11.9844 19.8819 12.8208 19.1684 13.4164 18.2692C13.9403 19.0608 14.6522 19.7102 15.4883 20.1594C16.3245 20.6087 17.2589 20.8438 18.2081 20.8438C19.1573 20.8438 20.0917 20.6087 20.9279 20.1594C21.764 19.7102 22.4758 19.0608 22.9998 18.2692C23.5237 19.0608 24.2355 19.7102 25.0717 20.1594C25.9078 20.6087 26.8422 20.8438 27.7914 20.8438C28.7406 20.8438 29.6751 20.6087 30.5112 20.1594C31.3474 19.7102 32.0592 19.0608 32.5831 18.2692C33.1787 19.1684 34.0152 19.8819 34.997 20.3283C35.9788 20.7747 37.0663 20.9359 38.1354 20.7935C39.2045 20.6512 40.212 20.211 41.0428 19.5232C41.8736 18.8355 42.4942 17.9279 42.8337 16.9042C43.1463 15.9618 43.1103 14.8828 42.7326 13.8666L42.5653 13.4169H3.43431L3.26693 13.8666Z" fill="#0C4362"/>
<path d="M42.733 13.8664L39.6963 5.70554C39.4902 5.15693 39.1221 4.68401 38.6408 4.34961C38.1596 4.01521 37.588 3.83515 37.002 3.83337H30.8926L32.467 12.7556C32.5447 13.1955 32.5838 13.6413 32.5838 14.088V18.2692C33.1793 19.1684 34.0158 19.882 34.9976 20.3284C35.9795 20.7748 37.0671 20.936 38.1362 20.7937C39.2053 20.6513 40.2128 20.2111 41.0436 19.5233C41.8744 18.8355 42.495 17.9279 42.8345 16.9042C43.1472 15.9617 43.1112 14.8827 42.7334 13.8666L42.733 13.8664Z" fill="#68BDED"/>
<path d="M32.5842 14.088V18.2692C33.1797 19.1684 34.0162 19.8819 34.998 20.3283C35.9798 20.7747 37.0674 20.9359 38.1365 20.7935C39.2055 20.6512 40.213 20.211 41.0438 19.5232C41.8746 18.8355 42.4952 17.9279 42.8347 16.9042C43.1474 15.9618 43.1113 14.8828 42.7336 13.8666L42.5663 13.4169H32.5547C32.5742 13.6399 32.584 13.8636 32.5842 14.088Z" fill="#2482B6"/>
<path d="M15.1072 3.83337L13.5328 12.7556C13.4551 13.1955 13.4161 13.6413 13.416 14.088V18.2692C13.9399 19.0607 14.6518 19.7101 15.4879 20.1594C16.3241 20.6086 17.2585 20.8438 18.2077 20.8438C19.1569 20.8438 20.0913 20.6086 20.9275 20.1594C21.7636 19.7101 22.4755 19.0607 22.9994 18.2692V3.83337H15.1072Z" fill="#68BDED"/>
<path d="M13.4457 13.4166C13.426 13.6398 13.4161 13.8636 13.416 14.0879V18.2692C13.9399 19.0607 14.6518 19.7101 15.4879 20.1594C16.3241 20.6086 17.2585 20.8438 18.2077 20.8438C19.1569 20.8438 20.0913 20.6086 20.9275 20.1594C21.7636 19.7101 22.4755 19.0607 22.9994 18.2692V13.4166H13.4457Z" fill="#2482B6"/>
</svg>
